<!-- icon666.com - MILLIONS vector ICONS FREE --><svg version="1.1" id="Layer_1" xmlns="http://www.w3.org/2000/svg" xmlns:xlink="http://www.w3.org/1999/xlink" x="0px" y="0px" viewBox="0 0 512 512" style="enable-background:new 0 0 512 512;" xml:space="preserve"><g><g><path d="M503.83,495.66h-24.511V8.17c0-4.512-3.657-8.17-8.17-8.17H356.766c-4.513,0-8.17,3.658-8.17,8.17V495.66h-27.234V334.298 c0-4.512-3.657-8.17-8.17-8.17c-4.513,0-8.17,3.658-8.17,8.17V495.66h-98.043V140.255h98.043v161.362 c0,4.512,3.657,8.17,8.17,8.17c4.513,0,8.17-3.658,8.17-8.17V132.085c0-4.512-3.657-8.17-8.17-8.17H198.809 c-4.513,0-8.17,3.658-8.17,8.17V495.66h-27.234V256c0-4.512-3.657-8.17-8.17-8.17H40.851c-4.513,0-8.17,3.658-8.17,8.17v239.66 H8.17c-4.513,0-8.17,3.658-8.17,8.17S3.657,512,8.17,512h495.66c4.513,0,8.17-3.658,8.17-8.17S508.343,495.66,503.83,495.66z M147.064,495.66H49.021V264.17h98.043V495.66z M462.979,495.66h-98.043V16.34h98.043V495.66z" fill="#000000" style="fill: rgb(255, 255, 255);"></path></g></g></svg>