<!-- icon666.com - MILLIONS vector ICONS FREE --><svg viewBox="0 -16 480 480" xmlns="http://www.w3.org/2000/svg"><path d="m424 0h-48v32h-32v-32h-48v32h-32v-32h-48v32h-32v-32h-48v32h-32v-32h-48v32h-56v416h480v-416h-56zm-32 16h16v48h-16zm-80 0h16v48h-16zm-80 0h16v48h-16zm-80 0h16v48h-16zm-80 0h16v48h-16zm392 416h-448v-272h448zm0-384v96h-448v-96h40v32h48v-32h32v32h48v-32h32v32h48v-32h32v32h48v-32h32v32h48v-32zm0 0" fill="#000000" style="fill: rgb(255, 255, 255);"></path><path d="m168 192h-80v80h80zm-16 64h-48v-48h48zm0 0" fill="#000000" style="fill: rgb(255, 255, 255);"></path><path d="m280 192h-80v80h80zm-16 64h-48v-48h48zm0 0" fill="#000000" style="fill: rgb(255, 255, 255);"></path><path d="m392 192h-80v80h80zm-16 64h-48v-48h48zm0 0" fill="#000000" style="fill: rgb(255, 255, 255);"></path><path d="m280 304h-80v80h80zm-16 64h-48v-48h48zm0 0" fill="#000000" style="fill: rgb(255, 255, 255);"></path><path d="m392 304h-80v80h80zm-16 64h-48v-48h48zm0 0" fill="#000000" style="fill: rgb(255, 255, 255);"></path><path d="m120 392c35.289062 0 64-21.527344 64-48-.292969-11.679688-5.527344-22.6875-14.398438-30.289062l20.054688-20.054688-11.3125-11.3125-22.128906 22.121094c-11.226563-5.660156-23.640625-8.5625-36.214844-8.464844-35.289062 0-64 21.527344-64 48s28.710938 48 64 48zm0-80c8.265625-.027344 16.460938 1.511719 24.152344 4.535156l-24.152344 24.152344-10.34375-10.34375-11.3125 11.3125 21.65625 21.65625 38.289062-38.289062c5.824219 4.625 9.367188 11.546874 9.710938 18.976562 0 17.34375-21.984375 32-48 32s-48-14.65625-48-32 21.984375-32 48-32zm0 0" fill="#000000" style="fill: rgb(255, 255, 255);"></path><path d="m48 112h64v16h-64zm0 0" fill="#000000" style="fill: rgb(255, 255, 255);"></path><path d="m144 112h16v16h-16zm0 0" fill="#000000" style="fill: rgb(255, 255, 255);"></path></svg>