<!-- icon666.com - MILLIONS vector ICONS FREE --><svg id="Image" viewBox="0 0 64 64" xmlns="http://www.w3.org/2000/svg"><g><g><path d="m31.999 44c-6.617 0-12-5.383-12-12s5.383-12 12-12 12 5.383 12 12-5.384 12-12 12zm0-22c-5.514 0-10 4.486-10 10s4.486 10 10 10 10-4.486 10-10-4.486-10-10-10z"></path></g><g><path d="m31.999 18c-.552 0-1-.448-1-1v-12c0-.552.448-1 1-1s1 .448 1 1v12c0 .552-.448 1-1 1z"></path></g><g><path d="m31.999 60c-.552 0-1-.448-1-1v-12c0-.552.448-1 1-1s1 .448 1 1v12c0 .552-.448 1-1 1z"></path></g><g><path d="m24.5 20.01c-.346 0-.682-.179-.867-.5l-6-10.392c-.276-.479-.112-1.09.366-1.366.477-.276 1.089-.112 1.366.366l6 10.392c.276.479.112 1.09-.366 1.366-.158.091-.33.134-.499.134z"></path></g><g><path d="m45.5 56.383c-.346 0-.682-.179-.867-.5l-6-10.392c-.276-.479-.112-1.09.366-1.366.477-.276 1.089-.112 1.366.366l6 10.392c.276.479.112 1.09-.366 1.366-.158.091-.33.134-.499.134z"></path></g><g><path d="m19.007 25.5c-.169 0-.342-.043-.499-.134l-10.392-6c-.478-.276-.641-.887-.366-1.366.277-.479.888-.643 1.366-.366l10.392 6c.479.276.642.888.366 1.366-.185.321-.521.5-.867.5z"></path></g><g><path d="m55.38 46.5c-.169 0-.342-.043-.499-.134l-10.392-6c-.479-.276-.642-.888-.366-1.366.276-.479.888-.644 1.366-.366l10.392 6c.479.276.642.888.366 1.366-.185.321-.521.5-.867.5z"></path></g><g><path d="m17 33h-12c-.552 0-1-.448-1-1s.448-1 1-1h12c.552 0 1 .448 1 1s-.448 1-1 1z"></path></g><g><path d="m59 33h-12c-.552 0-1-.448-1-1s.448-1 1-1h12c.552 0 1 .448 1 1s-.448 1-1 1z"></path></g><g><path d="m8.619 46.499c-.346 0-.682-.179-.867-.5-.276-.479-.112-1.09.366-1.366l10.393-5.999c.479-.277 1.089-.112 1.366.366.276.479.112 1.09-.366 1.366l-10.393 5.999c-.158.091-.33.134-.499.134z"></path></g><g><path d="m44.992 25.499c-.346 0-.682-.179-.867-.5-.276-.479-.112-1.09.366-1.366l10.393-5.999c.479-.277 1.089-.112 1.366.366.276.479.112 1.09-.366 1.366l-10.393 5.999c-.158.091-.33.134-.499.134z"></path></g><g><path d="m18.5 56.381c-.169 0-.342-.043-.499-.134-.479-.276-.642-.888-.366-1.366l6-10.392c.276-.478.888-.643 1.366-.366.479.276.642.888.366 1.366l-6 10.392c-.186.321-.522.5-.867.5z"></path></g><g><path d="m39.5 20.008c-.169 0-.341-.043-.499-.134-.479-.276-.642-.888-.366-1.366l6-10.391c.275-.479.886-.643 1.365-.367s.642.888.366 1.366l-6 10.391c-.185.322-.521.501-.866.501z"></path></g></g></svg>